<svg width="40" height="40" viewBox="0 0 40 40" fill="none" xmlns="http://www.w3.org/2000/svg">
<circle cx="20" cy="20" r="20" fill="#4EA7A8" fill-opacity="0.14"/>
<path d="M20.1667 19.3333C22.4679 19.3333 24.3333 17.4679 24.3333 15.1667C24.3333 12.8655 22.4679 11 20.1667 11C17.8655 11 16 12.8655 16 15.1667C16 17.4679 17.8655 19.3333 20.1667 19.3333Z" fill="#E6F3F3" fill-opacity="0.14" stroke="#108081" stroke-width="2" stroke-linecap="round" stroke-linejoin="round"/>
<path d="M12.5 29C12.5 25.6829 15.7229 23.3335 19.4815 23.3335C20.2427 23.3335 20.9802 23.4449 21.67 23.6506" stroke="#108081" stroke-width="2" stroke-linecap="round" stroke-linejoin="round"/>
<path d="M28.0066 25.6634C28.0066 25.9301 27.9733 26.1884 27.9066 26.4384C27.8316 26.7717 27.6983 27.0967 27.5233 27.3801C26.9483 28.3467 25.89 28.9967 24.6733 28.9967C23.815 28.9967 23.04 28.6717 22.4567 28.1384C22.2067 27.9217 21.99 27.6634 21.8233 27.3801C21.515 26.8801 21.34 26.2884 21.34 25.6634C21.34 24.7634 21.6983 23.9384 22.2816 23.3384C22.89 22.7134 23.74 22.3301 24.6733 22.3301C25.6566 22.3301 26.5483 22.7551 27.1483 23.4384C27.6816 24.0301 28.0066 24.8134 28.0066 25.6634Z" stroke="#108081" stroke-width="2" stroke-miterlimit="10" stroke-linecap="round" stroke-linejoin="round"/>
<path d="M25.67 25.6499H23.67" stroke="#108081" stroke-width="1.5" stroke-miterlimit="10" stroke-linecap="round" stroke-linejoin="round"/>
</svg>
