<svg width="40" height="40" viewBox="0 0 40 40" fill="none" xmlns="http://www.w3.org/2000/svg">
<circle cx="20" cy="20" r="20" fill="#E6F3F3"/>
<path d="M13 24L12 28L16 27L27.586 15.414C27.9609 15.0389 28.1716 14.5303 28.1716 14C28.1716 13.4697 27.9609 12.9611 27.586 12.586L27.414 12.414C27.0389 12.0391 26.5303 11.8284 26 11.8284C25.4697 11.8284 24.9611 12.0391 24.586 12.414L13 24ZM23 14L26 17L23 14ZM21 28H29H21Z" fill="#E6F3F3"/>
<path d="M23 14L26 17M21 28H29M13 24L12 28L16 27L27.586 15.414C27.9609 15.0389 28.1716 14.5303 28.1716 14C28.1716 13.4697 27.9609 12.9611 27.586 12.586L27.414 12.414C27.0389 12.0391 26.5303 11.8284 26 11.8284C25.4697 11.8284 24.9611 12.0391 24.586 12.414L13 24Z" stroke="#108081" stroke-width="2" stroke-linecap="round" stroke-linejoin="round"/>
</svg>
